<svg xmlns="http://www.w3.org/2000/svg" xmlns:xlink="http://www.w3.org/1999/xlink" width="18.485" height="16.208" viewBox="0 0 18.485 16.208">
  <defs>
    <linearGradient id="linear-gradient" x1="0.5" x2="0.5" y2="1" gradientUnits="objectBoundingBox">
      <stop offset="0" stop-color="#5574f7"/>
      <stop offset="1" stop-color="#60c3ff"/>
    </linearGradient>
  </defs>
  <g id="like-full" transform="translate(0.519 0.5)">
    <path id="path" d="M9.263,15.644h0C21.769,9.773,17.09,2.712,17.09,2.712A4.578,4.578,0,0,0,13.176.5a4.724,4.724,0,0,0-4,2.212A4.471,4.471,0,0,0,5.264.5,4.4,4.4,0,0,0,1.351,2.712S-3.328,9.773,9.263,15.644C9.178,15.729,9.263,15.729,9.263,15.644Z" transform="translate(-0.5 -0.5)" stroke="#fff" stroke-linejoin="round" stroke-miterlimit="10" stroke-width="1" fill="url(#linear-gradient)"/>
    <path id="path-2" data-name="path" d="M15.4,2.6a2.688,2.688,0,0,1,2.722,2.722" transform="translate(-2.724 -0.813)" stroke="#fff" stroke-linecap="round" stroke-miterlimit="10" stroke-width="1" fill="url(#linear-gradient)"/>
  </g>
</svg>
