<svg xmlns="http://www.w3.org/2000/svg" width="23.7" height="23.5" viewBox="0 0 23.7 23.5">
  <g id="unfriend" transform="translate(0 0)">
    <path id="path" d="M5.5,13.6v3l-5,2.3" fill="none" stroke="#5887F9" stroke-linecap="round" stroke-linejoin="round" stroke-miterlimit="10" stroke-width="1"/>
    <path id="path-2" data-name="path" d="M13.4,17.5" fill="none" stroke="#5887F9" stroke-linecap="round" stroke-linejoin="round" stroke-miterlimit="10" stroke-width="1"/>
    <path id="path-3" data-name="path" d="M13.1,17.4" fill="none" stroke="#5887F9" stroke-linecap="round" stroke-linejoin="round" stroke-miterlimit="10" stroke-width="1"/>
    <path id="path-4" data-name="path" d="M11.3,13.6v3l1.8.8" fill="none" stroke="#5887F9" stroke-linecap="round" stroke-linejoin="round" stroke-miterlimit="10" stroke-width="1"/>
    <path id="path-5" data-name="path" d="M10.2,14.1a5.2,5.2,0,0,0,3.5-4.9V4.6A4.055,4.055,0,0,0,9.6.5H7.3A4.055,4.055,0,0,0,3.2,4.6V9.2a5.2,5.2,0,0,0,3.5,4.9" fill="none" stroke="#5887F9" stroke-linecap="round" stroke-linejoin="round" stroke-miterlimit="10" stroke-width="1"/>
    <circle id="ellipse" cx="5" cy="5" r="5" stroke-width="1" transform="translate(13.2 13)" stroke="#5887F9" stroke-linecap="round" stroke-linejoin="round" stroke-miterlimit="10" fill="none"/>
    <line id="line" x1="3.4" y2="3.4" stroke-width="1" transform="translate(16.5 16.3)" stroke="#5887F9" stroke-linecap="round" stroke-linejoin="round" stroke-miterlimit="10" fill="none"/>
    <line id="line-2" data-name="line" x1="3.4" y1="3.4" transform="translate(16.5 16.3)" fill="none" stroke="#5887F9" stroke-linecap="round" stroke-linejoin="round" stroke-miterlimit="10" stroke-width="1"/>
  </g>
</svg>
