<svg xmlns="http://www.w3.org/2000/svg" xmlns:xlink="http://www.w3.org/1999/xlink" width="24" height="24" viewBox="0 0 24 24">
  <defs>
    <linearGradient id="linear-gradient" x1="0.5" x2="0.5" y2="1" gradientUnits="objectBoundingBox">
      <stop offset="0" stop-color="#5574f7"/>
      <stop offset="1" stop-color="#60c3ff"/>
    </linearGradient>
  </defs>
  <path id="settings" d="M94.456,188.6H93.373a9.663,9.663,0,0,0-1.394-3.36l.768-.768a.9.9,0,0,0,0-1.265l-1.528-1.528a.9.9,0,0,0-1.265,0l-.768.768a9.664,9.664,0,0,0-3.36-1.394v-1.083a.9.9,0,0,0-.895-.895H82.771a.9.9,0,0,0-.895.895v1.083a9.664,9.664,0,0,0-3.36,1.394l-.768-.768a.9.9,0,0,0-1.265,0l-1.528,1.528a.9.9,0,0,0,0,1.265l.768.768a9.675,9.675,0,0,0-1.395,3.36H73.246a.9.9,0,0,0-.895.895v2.161a.9.9,0,0,0,.895.895h1.083a9.675,9.675,0,0,0,1.395,3.36l-.768.768a.9.9,0,0,0,0,1.265l1.528,1.528a.9.9,0,0,0,1.265,0l.768-.768a9.664,9.664,0,0,0,3.36,1.394v1.083a.9.9,0,0,0,.895.895h2.161a.9.9,0,0,0,.895-.895V200.1a9.664,9.664,0,0,0,3.36-1.394l.768.768a.9.9,0,0,0,1.265,0l1.528-1.528a.9.9,0,0,0,0-1.265l-.768-.768a9.663,9.663,0,0,0,1.394-3.36h1.083a.9.9,0,0,0,.895-.895V189.5A.9.9,0,0,0,94.456,188.6Zm-10.606,6.991a5.016,5.016,0,1,1,5.016-5.015A5.016,5.016,0,0,1,83.851,195.594Zm-6.15-7.563a6.694,6.694,0,0,1,1.937-2.644" transform="translate(-71.851 -178.578)" stroke="#fff" stroke-linecap="round" stroke-miterlimit="10" stroke-width="1" fill="url(#linear-gradient)"/>
</svg>
